{
	"asset":{
		"generator":"Khronos glTF Blender I/O v4.1.63",
		"version":"2.0"
	},
	"scene":0,
	"scenes":[
		{
			"name":"Scene",
			"nodes":[
				5
			]
		}
	],
	"nodes":[
		{
			"name":"Bone.003",
			"rotation":[
				-3.5527119847346064e-15,
				0,
				-2.0194839173657902e-28,
				1
			],
			"translation":[
				0,
				2.0170812606811523,
				0
			]
		},
		{
			"children":[
				0
			],
			"name":"Bone.002",
			"rotation":[
				-3.5527119847346064e-15,
				0,
				-2.0194839173657902e-28,
				1
			],
			"translation":[
				0,
				1.9886735677719116,
				0
			]
		},
		{
			"children":[
				1
			],
			"name":"Bone.001",
			"rotation":[
				-3.5527119847346064e-15,
				1.7763568394002505e-14,
				-2.0194839173657902e-28,
				1
			],
			"translation":[
				0,
				1.8075895309448242,
				0
			]
		},
		{
			"children":[
				2
			],
			"name":"Bone",
			"rotation":[
				-2.980232594040899e-08,
				1.1920927533992653e-07,
				0,
				1
			],
			"scale":[
				1,
				0.9999999403953552,
				0.9999999403953552
			]
		},
		{
			"mesh":0,
			"name":"Circle",
			"skin":0
		},
		{
			"children":[
				4,
				3
			],
			"name":"Armature"
		}
	],
	"animations":[
		{
			"channels":[
				{
					"sampler":0,
					"target":{
						"node":3,
						"path":"translation"
					}
				},
				{
					"sampler":1,
					"target":{
						"node":3,
						"path":"rotation"
					}
				},
				{
					"sampler":2,
					"target":{
						"node":3,
						"path":"scale"
					}
				},
				{
					"sampler":3,
					"target":{
						"node":2,
						"path":"translation"
					}
				},
				{
					"sampler":4,
					"target":{
						"node":2,
						"path":"rotation"
					}
				},
				{
					"sampler":5,
					"target":{
						"node":2,
						"path":"scale"
					}
				},
				{
					"sampler":6,
					"target":{
						"node":1,
						"path":"translation"
					}
				},
				{
					"sampler":7,
					"target":{
						"node":1,
						"path":"rotation"
					}
				},
				{
					"sampler":8,
					"target":{
						"node":1,
						"path":"scale"
					}
				},
				{
					"sampler":9,
					"target":{
						"node":0,
						"path":"translation"
					}
				},
				{
					"sampler":10,
					"target":{
						"node":0,
						"path":"rotation"
					}
				},
				{
					"sampler":11,
					"target":{
						"node":0,
						"path":"scale"
					}
				}
			],
			"name":"ArmatureAction",
			"samplers":[
				{
					"input":7,
					"interpolation":"STEP",
					"output":8
				},
				{
					"input":7,
					"interpolation":"STEP",
					"output":9
				},
				{
					"input":7,
					"interpolation":"STEP",
					"output":10
				},
				{
					"input":7,
					"interpolation":"STEP",
					"output":11
				},
				{
					"input":7,
					"interpolation":"STEP",
					"output":12
				},
				{
					"input":7,
					"interpolation":"STEP",
					"output":13
				},
				{
					"input":7,
					"interpolation":"STEP",
					"output":14
				},
				{
					"input":15,
					"interpolation":"LINEAR",
					"output":16
				},
				{
					"input":7,
					"interpolation":"STEP",
					"output":17
				},
				{
					"input":7,
					"interpolation":"LINEAR",
					"output":18
				},
				{
					"input":15,
					"interpolation":"LINEAR",
					"output":19
				},
				{
					"input":7,
					"interpolation":"STEP",
					"output":20
				}
			]
		}
	],
	"meshes":[
		{
			"name":"Circle.001",
			"primitives":[
				{
					"attributes":{
						"POSITION":0,
						"NORMAL":1,
						"TEXCOORD_0":2,
						"JOINTS_0":3,
						"WEIGHTS_0":4
					},
					"indices":5
				}
			]
		}
	],
	"skins":[
		{
			"inverseBindMatrices":6,
			"joints":[
				3,
				2,
				1,
				0
			],
			"name":"Armature"
		}
	],
	"accessors":[
		{
			"bufferView":0,
			"componentType":5126,
			"count":432,
			"max":[
				1,
				7.416871547698975,
				1
			],
			"min":[
				-1,
				0,
				-1
			],
			"type":"VEC3"
		},
		{
			"bufferView":1,
			"componentType":5126,
			"count":432,
			"type":"VEC3"
		},
		{
			"bufferView":2,
			"componentType":5126,
			"count":432,
			"type":"VEC2"
		},
		{
			"bufferView":3,
			"componentType":5121,
			"count":432,
			"type":"VEC4"
		},
		{
			"bufferView":4,
			"componentType":5126,
			"count":432,
			"type":"VEC4"
		},
		{
			"bufferView":5,
			"componentType":5123,
			"count":1212,
			"type":"SCALAR"
		},
		{
			"bufferView":6,
			"componentType":5126,
			"count":4,
			"type":"MAT4"
		},
		{
			"bufferView":7,
			"componentType":5126,
			"count":2,
			"max":[
				3.3333333333333335
			],
			"min":[
				0
			],
			"type":"SCALAR"
		},
		{
			"bufferView":8,
			"componentType":5126,
			"count":2,
			"type":"VEC3"
		},
		{
			"bufferView":9,
			"componentType":5126,
			"count":2,
			"type":"VEC4"
		},
		{
			"bufferView":10,
			"componentType":5126,
			"count":2,
			"type":"VEC3"
		},
		{
			"bufferView":11,
			"componentType":5126,
			"count":2,
			"type":"VEC3"
		},
		{
			"bufferView":12,
			"componentType":5126,
			"count":2,
			"type":"VEC4"
		},
		{
			"bufferView":13,
			"componentType":5126,
			"count":2,
			"type":"VEC3"
		},
		{
			"bufferView":14,
			"componentType":5126,
			"count":2,
			"type":"VEC3"
		},
		{
			"bufferView":15,
			"componentType":5126,
			"count":81,
			"max":[
				3.3333333333333335
			],
			"min":[
				0
			],
			"type":"SCALAR"
		},
		{
			"bufferView":16,
			"componentType":5126,
			"count":81,
			"type":"VEC4"
		},
		{
			"bufferView":17,
			"componentType":5126,
			"count":2,
			"type":"VEC3"
		},
		{
			"bufferView":18,
			"componentType":5126,
			"count":2,
			"type":"VEC3"
		},
		{
			"bufferView":19,
			"componentType":5126,
			"count":81,
			"type":"VEC4"
		},
		{
			"bufferView":20,
			"componentType":5126,
			"count":2,
			"type":"VEC3"
		}
	],
	"bufferViews":[
		{
			"buffer":0,
			"byteLength":5184,
			"byteOffset":0,
			"target":34962
		},
		{
			"buffer":0,
			"byteLength":5184,
			"byteOffset":5184,
			"target":34962
		},
		{
			"buffer":0,
			"byteLength":3456,
			"byteOffset":10368,
			"target":34962
		},
		{
			"buffer":0,
			"byteLength":1728,
			"byteOffset":13824,
			"target":34962
		},
		{
			"buffer":0,
			"byteLength":6912,
			"byteOffset":15552,
			"target":34962
		},
		{
			"buffer":0,
			"byteLength":2424,
			"byteOffset":22464,
			"target":34963
		},
		{
			"buffer":0,
			"byteLength":256,
			"byteOffset":24888
		},
		{
			"buffer":0,
			"byteLength":8,
			"byteOffset":25144
		},
		{
			"buffer":0,
			"byteLength":24,
			"byteOffset":25152
		},
		{
			"buffer":0,
			"byteLength":32,
			"byteOffset":25176
		},
		{
			"buffer":0,
			"byteLength":24,
			"byteOffset":25208
		},
		{
			"buffer":0,
			"byteLength":24,
			"byteOffset":25232
		},
		{
			"buffer":0,
			"byteLength":32,
			"byteOffset":25256
		},
		{
			"buffer":0,
			"byteLength":24,
			"byteOffset":25288
		},
		{
			"buffer":0,
			"byteLength":24,
			"byteOffset":25312
		},
		{
			"buffer":0,
			"byteLength":324,
			"byteOffset":25336
		},
		{
			"buffer":0,
			"byteLength":1296,
			"byteOffset":25660
		},
		{
			"buffer":0,
			"byteLength":24,
			"byteOffset":26956
		},
		{
			"buffer":0,
			"byteLength":24,
			"byteOffset":26980
		},
		{
			"buffer":0,
			"byteLength":1296,
			"byteOffset":27004
		},
		{
			"buffer":0,
			"byteLength":24,
			"byteOffset":28300
		}
	],
	"buffers":[
		{
			"byteLength":28324,
			"uri":"cilinder.bin"
		}
	]
}
